# xmcd
#
# Track frame offsets:
# 150
# 22636
# 50878
# 68564
# 92694
# 120464
# 138136
# 160076
# 178178
# 196644
# 214438
# 242808
# 270668
# 284236
#
# Disc length: 4014 seconds
#
# Revision: 0
# Processed by: cddbd v1.5.1PL2 Copyright (c) Steve Scherf et al.
# Submitted via: Audion 3.0.2 (http://www.panic.com/audion/)
#
DISCID=c80fac0e
DTITLE=Madrugada - The Deep End
DYEAR=1900
DGENRE=
TTITLE0=The Kids Are On High Street
TTITLE1=On Your Side
TTITLE2=Hold On To You
TTITLE3=Stories From The Streets
TTITLE4=Running Out Of Time
TTITLE5=The Lost Gospel
TTITLE6=Elektro Vakuum
TTITLE7=Subterranean Sunlight
TTITLE8=Hard To Come Back
TTITLE9=Ramona
TTITLE10=Slow Builder
TTITLE11=Sail Away
TTITLE12=?
TTITLE13=??
EXTD=
EXTT0=
EXTT1=
EXTT2=
EXTT3=
EXTT4=
EXTT5=
EXTT6=
EXTT7=
EXTT8=
EXTT9=
EXTT10=
EXTT11=
EXTT12=
EXTT13=
PLAYORDER=
